<?xml version="1.0" encoding="UTF-8" standalone="no" ?>
<!DOCTYPE svg PUBLIC "-//W3C//DTD SVG 1.1//EN" "http://www.w3.org/Graphics/SVG/1.1/DTD/svg11.dtd">
<svg xmlns="http://www.w3.org/2000/svg" xmlns:xlink="http://www.w3.org/1999/xlink" version="1.1" width="400" height="400" viewBox="0 0 400 400" xml:space="preserve">
<desc>Created with Fabric.js 3.6.2</desc>
<defs>
</defs>
<g transform="matrix(0.39 0 0 0.39 199.9 200.19)" id="facebook__x2C_"  >
<path style="stroke: none; stroke-width: 1; stroke-dasharray: none; stroke-linecap: butt; stroke-dashoffset: 0; stroke-linejoin: miter; stroke-miterlimit: 4; fill: rgb(35,91,158); fill-rule: nonzero; opacity: 1;"  transform=" translate(-255.74, -256.49)" d="M 492.871 374.968 c 0 65.432 -53.089 118.482 -118.585 118.482 H 137.149 c -65.477 0 -118.546 -53.051 -118.546 -118.482 V 138.009 c 0 -65.451 53.069 -118.483 118.546 -118.483 h 237.137 c 65.496 0 118.585 53.032 118.585 118.483 V 374.968 z" stroke-linecap="round" />
</g>
<g transform="matrix(0.39 0 0 0.39 199.9 200.19)" id="facebook__x2C_"  >
<path style="stroke: none; stroke-width: 1; stroke-dasharray: none; stroke-linecap: butt; stroke-dashoffset: 0; stroke-linejoin: miter; stroke-miterlimit: 4; fill: rgb(255,255,255); fill-rule: nonzero; opacity: 1;"  transform=" translate(-255.74, -256.49)" d="M 216.217 404.588 h 59.284 c 0 0 0 -81.765 0 -148.096 h 43.998 l 5.404 -59.241 h -47.126 v -23.681 c 0 -11.551 7.699 -14.232 13.104 -14.232 c 5.423 0 33.271 0 33.271 0 v -50.756 l -45.795 -0.192 c -50.831 0 -62.391 37.855 -62.391 62.095 v 26.767 H 186.57 v 59.241 h 29.647 C 216.217 323.613 216.217 404.588 216.217 404.588 z" stroke-linecap="round" />
</g>
<g transform="matrix(0.39 0 0 0.39 199.9 200.19)" id="facebook__x2C_"  >
<path style="stroke: none; stroke-width: 1; stroke-dasharray: none; stroke-linecap: butt; stroke-dashoffset: 0; stroke-linejoin: miter; stroke-miterlimit: 4; fill: rgb(255,255,255); fill-rule: nonzero; opacity: 1;"  transform=" translate(-255.74, -256.49)" d="M 216.217 404.588 h 59.284 c 0 0 0 -81.765 0 -148.096 h 43.998 l 5.404 -59.241 h -47.126 v -23.681 c 0 -11.551 7.699 -14.232 13.104 -14.232 c 5.423 0 33.271 0 33.271 0 v -50.756 l -45.795 -0.192 c -50.831 0 -62.391 37.855 -62.391 62.095 v 26.767 H 186.57 v 59.241 h 29.647 C 216.217 323.613 216.217 404.588 216.217 404.588 z" stroke-linecap="round" />
</g>
<g transform="matrix(0.39 0 0 0.39 199.9 200.19)" id="facebook__x2C_"  >
<path style="stroke: none; stroke-width: 1; stroke-dasharray: none; stroke-linecap: butt; stroke-dashoffset: 0; stroke-linejoin: miter; stroke-miterlimit: 4; fill: rgb(26,68,119); fill-rule: nonzero; opacity: 1;"  transform=" translate(-255.74, -256.49)" d="M 278.356 108.389 l 45.795 0.192 v 50.756 c 0 0 -27.848 0 -33.271 0 c -5.404 0 -13.104 2.681 -13.104 14.232 v 23.681 h 47.126 l -5.404 59.241 h -43.998 c 0 66.332 0 148.096 0 148.096 h -59.284 c 0 0 0 -80.975 0 -148.096 H 186.57 V 197.25 h 29.396 v -26.767 C 215.966 146.244 227.525 108.389 278.356 108.389 M 278.356 98.512 c -32.226 0 -49.435 14.117 -58.197 25.96 c -12.243 16.547 -14.071 35.931 -14.071 46.012 v 16.89 H 186.57 c -5.455 0 -9.877 4.422 -9.877 9.877 v 59.241 c 0 5.455 4.422 9.877 9.877 9.877 h 19.77 v 138.219 c 0 5.455 4.422 9.877 9.877 9.877 h 59.284 c 5.455 0 9.877 -4.422 9.877 -9.877 V 266.369 h 34.121 c 5.107 0 9.372 -3.895 9.836 -8.98 l 5.404 -59.241 c 0.252 -2.764 -0.67 -5.507 -2.541 -7.557 c -1.872 -2.05 -4.52 -3.218 -7.295 -3.218 h -37.249 v -13.804 c 0 -2.266 0.474 -3.454 0.879 -3.784 c 0.35 -0.284 1.211 -0.571 2.348 -0.571 h 33.271 c 5.455 0 9.877 -4.422 9.877 -9.877 v -50.756 c 0 -5.439 -4.396 -9.854 -9.835 -9.877 l -45.795 -0.192 C 278.384 98.512 278.37 98.512 278.356 98.512 L 278.356 98.512 z" stroke-linecap="round" />
</g>
<g transform="matrix(0.39 0 0 0.39 199.9 200.19)" id="facebook__x2C_"  >
<path style="stroke: none; stroke-width: 1; stroke-dasharray: none; stroke-linecap: butt; stroke-dashoffset: 0; stroke-linejoin: miter; stroke-miterlimit: 4; fill: rgb(26,68,119); fill-rule: nonzero; opacity: 1;"  transform=" translate(-255.74, -256.49)" d="M 364.039 478.061 H 147.415 c -62.448 0 -113.253 -50.818 -113.253 -113.283 V 148.179 c 0 -62.454 50.805 -113.263 113.253 -113.263 h 216.624 c 62.459 0 113.272 50.81 113.272 113.263 v 216.599 C 477.312 427.242 426.498 478.061 364.039 478.061 z M 147.415 44.818 c -56.988 0 -103.351 46.367 -103.351 103.36 v 216.599 c 0 57.004 46.363 103.381 103.351 103.381 h 216.624 c 56.998 0 103.37 -46.377 103.37 -103.381 V 148.179 c 0 -56.993 -46.372 -103.36 -103.37 -103.36 H 147.415 z" stroke-linecap="round" />
</g>
</svg>