<?xml version="1.0" encoding="UTF-8" standalone="no" ?>
<!DOCTYPE svg PUBLIC "-//W3C//DTD SVG 1.1//EN" "http://www.w3.org/Graphics/SVG/1.1/DTD/svg11.dtd">
<svg xmlns="http://www.w3.org/2000/svg" xmlns:xlink="http://www.w3.org/1999/xlink" version="1.1" width="400" height="400" viewBox="0 0 400 400" xml:space="preserve">
<desc>Created with Fabric.js 3.6.2</desc>
<defs>
</defs>
<g transform="matrix(2 0 0 2 200.7 199.3)" id="Background_7_"  >
<linearGradient id="SVGID_Background_13__1" gradientUnits="userSpaceOnUse" gradientTransform="matrix(60 0 0 -60 -2993 37639)"  x1="50.7231" y1="627.2328" x2="50.7231" y2="625.7462">
<stop offset="0%" style="stop-color:rgb(98,250,127);stop-opacity: 1"/>
<stop offset="68.65%" style="stop-color:rgb(34,204,64);stop-opacity: 1"/>
<stop offset="100%" style="stop-color:rgb(5,183,35);stop-opacity: 1"/>
</linearGradient>
<path style="stroke: none; stroke-width: 1; stroke-dasharray: none; stroke-linecap: butt; stroke-dashoffset: 0; stroke-linejoin: miter; stroke-miterlimit: 4; fill: url(#SVGID_Background_13__1); fill-rule: nonzero; opacity: 1;"  transform=" translate(-50.35, -49.65)" d="M 28.4 5 c -0.5 0 -1.5 0 -2.4 0 c -2 0.1 -4.6 0.2 -5.7 0.5 c -1.8 0.4 -3.5 0.9 -4.9 1.6 c -1.6 0.8 -3.1 1.9 -4.4 3.2 c -1.3 1.3 -2.3 2.7 -3.2 4.4 c -0.7 1.4 -1.3 3.1 -1.6 4.8 c -0.2 1.2 -0.4 3.8 -0.5 5.8 c 0 0.8 0 1.9 0 2.4 l 0 43.9 c 0 0.5 0 1.5 0 2.4 c 0.1 2 0.2 4.6 0.5 5.7 c 0.4 1.8 0.9 3.5 1.6 4.9 c 0.8 1.6 1.9 3.1 3.2 4.4 c 1.3 1.3 2.7 2.3 4.4 3.2 c 1.4 0.7 3.1 1.3 4.8 1.6 c 1.2 0.2 3.8 0.4 5.8 0.5 c 0.8 0 1.9 0 2.4 0 l 43.9 0 c 0.5 0 1.5 0 2.4 0 c 2 -0.1 4.6 -0.2 5.7 -0.5 c 1.8 -0.4 3.5 -0.9 4.9 -1.6 c 1.6 -0.8 3.1 -1.9 4.4 -3.2 c 1.3 -1.3 2.3 -2.7 3.2 -4.4 c 0.7 -1.4 1.3 -3.1 1.6 -4.8 c 0.2 -1.2 0.4 -3.8 0.5 -5.8 c 0 -0.8 0 -1.9 0 -2.4 l 0 -43.9 c 0 -0.5 0 -1.5 0 -2.4 c -0.1 -2 -0.2 -4.6 -0.5 -5.7 c -0.4 -1.8 -0.9 -3.5 -1.6 -4.9 c -0.8 -1.6 -1.9 -3.1 -3.2 -4.4 c -1.3 -1.3 -2.7 -2.3 -4.4 -3.2 c -1.4 -0.7 -3.1 -1.3 -4.8 -1.6 c -1.2 -0.2 -3.8 -0.4 -5.8 -0.5 c -0.8 0 -1.9 0 -2.4 0 L 28.4 5 z" stroke-linecap="round" />
</g>
<g transform="matrix(2 0 0 2 202.2 197.7)" id="WhatsApp-Icon"  >
<path style="stroke: none; stroke-width: 1; stroke-dasharray: none; stroke-linecap: butt; stroke-dashoffset: 0; stroke-linejoin: miter; stroke-miterlimit: 4; fill: rgb(255,255,255); fill-rule: nonzero; opacity: 1;"  transform=" translate(-51.1, -48.85)" d="M 66.6 54.4 c -0.8 -0.4 -4.8 -2.3 -5.5 -2.6 c -0.7 -0.3 -1.3 -0.4 -1.8 0.4 s -2.1 2.6 -2.5 3.1 c -0.5 0.5 -0.9 0.6 -1.7 0.2 c -0.8 -0.4 -3.4 -1.2 -6.5 -3.9 c -2.4 -2.1 -4 -4.7 -4.5 -5.5 c -0.5 -0.8 0 -1.2 0.4 -1.6 c 0.4 -0.4 0.8 -0.9 1.2 -1.4 c 0.4 -0.5 0.5 -0.8 0.8 -1.3 c 0.3 -0.5 0.1 -1 -0.1 -1.4 c -0.2 -0.4 -1.8 -4.3 -2.5 -5.9 c -0.7 -1.5 -1.3 -1.3 -1.8 -1.4 c -0.5 0 -1 0 -1.5 0 c -0.5 0 -1.4 0.2 -2.1 1 c -0.7 0.8 -2.8 2.7 -2.8 6.6 c 0 3.9 2.9 7.6 3.3 8.2 c 0.4 0.5 5.7 8.5 13.7 11.9 c 1.9 0.8 3.4 1.3 4.6 1.7 c 1.9 0.6 3.7 0.5 5.1 0.3 c 1.5 -0.2 4.8 -1.9 5.4 -3.7 c 0.7 -1.8 0.7 -3.4 0.5 -3.7 C 67.9 55 67.4 54.8 66.6 54.4 M 51.3 75 L 51.3 75 c -4.8 0 -9.4 -1.3 -13.5 -3.7 l -1 -0.6 l -10 2.6 l 2.7 -9.7 l -0.6 -1 c -2.6 -4.2 -4 -9 -4 -14 c 0 -14.5 11.9 -26.3 26.5 -26.3 C 58.3 22.3 65 25 70 30 c 5 5 7.7 11.6 7.7 18.6 C 77.7 63.1 65.8 75 51.3 75 M 73.8 26.2 c -6 -6 -14 -9.3 -22.5 -9.3 c -17.5 0 -31.8 14.2 -31.8 31.7 c 0 5.6 1.5 11 4.2 15.8 l -4.5 16.4 L 36 76.4 c 4.6 2.5 9.9 3.9 15.2 3.9 h 0 h 0 c 17.5 0 31.8 -14.2 31.8 -31.7 C 83.1 40.2 79.8 32.2 73.8 26.2" stroke-linecap="round" />
</g>
</svg>